<svg width="360" height="361" viewBox="0 0 360 361" fill="none" xmlns="http://www.w3.org/2000/svg">
<g clip-path="url(#clip0_4_67)">
<circle cx="179.046" cy="179.442" r="174.186" fill="#FFFCFC"/>
<path d="M180.082 0.392822C80.8805 0.392822 0.165039 81.1083 0.165039 180.31C0.165039 279.512 80.8805 360.228 180.082 360.228C279.284 360.228 360 279.512 360 180.31C360 81.1083 279.284 0.392822 180.082 0.392822ZM180.082 352.731C85.0111 352.731 7.6616 275.382 7.6616 180.31C7.6616 85.2389 85.0111 7.88938 180.082 7.88938C275.154 7.88938 352.503 85.2389 352.503 180.31C352.503 275.382 275.154 352.731 180.082 352.731Z" fill="#0C0C0C"/>
<path d="M131.684 132.73L133.828 140.571C133.911 140.886 134.188 141.066 134.346 141.336V145.496C134.346 149.889 136.182 153.855 139.114 156.704V160.594L128.678 164.508C126.154 165.465 123.981 167.166 122.444 169.385C120.907 171.604 120.08 174.238 120.072 176.937V187.807C120.072 188.801 120.467 189.754 121.17 190.457C121.873 191.16 122.826 191.555 123.821 191.555C124.815 191.555 125.768 191.16 126.471 190.457C127.174 189.754 127.569 188.801 127.569 187.807V176.937C127.569 174.545 129.076 172.371 131.317 171.532L135.32 170.033C137.204 172.045 139.477 173.653 142.002 174.758C144.527 175.864 147.25 176.445 150.006 176.465C155.643 176.465 160.891 174.028 164.714 169.995L168.8 171.524C171.041 172.364 172.548 174.538 172.548 176.929V187.807C172.548 188.801 172.943 189.754 173.646 190.457C174.349 191.16 175.302 191.555 176.296 191.555C177.291 191.555 178.244 191.16 178.947 190.457C179.65 189.754 180.045 188.801 180.045 187.807V176.937C180.045 171.442 176.589 166.442 171.439 164.508L160.891 160.549V156.696C163.815 153.855 165.644 149.889 165.644 145.496V141.598C165.885 141.221 166.057 140.805 166.154 140.369L168.38 130.031C168.845 127.512 168.283 124.963 166.806 122.864C165.329 120.765 163.125 119.378 160.591 118.958L147.022 116.694C144.813 116.323 142.543 116.756 140.625 117.916C138.708 119.076 137.27 120.885 136.572 123.014C135.296 123.554 134.173 124.402 133.304 125.48C132.505 126.489 131.944 127.664 131.664 128.92C131.383 130.175 131.39 131.477 131.684 132.73ZM158.147 145.496C158.147 148.472 156.468 150.969 154.077 152.393C153.642 152.648 153.222 152.918 152.757 153.09C152.097 153.312 151.412 153.451 150.718 153.503C150.232 153.548 149.743 153.548 149.256 153.503C148.567 153.451 147.887 153.313 147.232 153.09C146.775 152.925 146.355 152.655 145.928 152.401C144.702 151.708 143.68 150.706 142.963 149.494C142.246 148.283 141.86 146.904 141.842 145.496V143.33H158.147V145.496ZM143.492 166.966L144.181 166.704C144.895 166.436 145.51 165.956 145.944 165.329C146.378 164.702 146.61 163.958 146.61 163.196V160.774L146.685 160.782C147.757 161.014 148.859 161.149 149.999 161.149H150.006L150.111 161.142C151.213 161.134 152.285 161.007 153.327 160.782L153.402 160.774V163.203C153.402 164.845 154.466 166.194 155.936 166.704L155.951 166.712L156.573 166.944C154.559 168.013 152.315 168.574 150.035 168.578C147.755 168.581 145.509 168.028 143.492 166.966ZM139.151 130.196C139.234 130.088 139.34 130.001 139.463 129.943C139.585 129.884 139.72 129.855 139.856 129.858C141.925 129.858 143.604 128.029 143.604 125.96C143.604 125.196 144.024 124.731 144.271 124.521C144.478 124.338 144.724 124.204 144.99 124.13C145.257 124.056 145.536 124.044 145.808 124.094L159.377 126.358C160.096 126.477 160.501 126.927 160.681 127.182C160.975 127.584 161.103 128.083 161.041 128.577L159.474 135.833H140.313L138.971 130.953C138.94 130.821 138.94 130.685 138.972 130.553C139.003 130.422 139.064 130.299 139.151 130.196Z" fill="#0C0C0C"/>
<path d="M266.293 86.6032H217.565V82.8549C217.565 81.8608 217.17 80.9074 216.467 80.2045C215.764 79.5015 214.811 79.1066 213.817 79.1066H195.075C195.075 70.8379 188.351 64.1135 180.082 64.1135C171.814 64.1135 165.089 70.8379 165.089 79.1066H146.348C145.354 79.1066 144.4 79.5015 143.697 80.2045C142.994 80.9074 142.599 81.8608 142.599 82.8549V86.6032H93.8718C92.8777 86.6032 91.9243 86.9981 91.2214 87.701C90.5184 88.404 90.1235 89.3574 90.1235 90.3515V292.759C90.1235 293.753 90.5184 294.706 91.2214 295.409C91.9243 296.112 92.8777 296.507 93.8718 296.507H266.293C267.287 296.507 268.24 296.112 268.943 295.409C269.646 294.706 270.041 293.753 270.041 292.759V90.3515C270.041 89.3574 269.646 88.404 268.943 87.701C268.24 86.9981 267.287 86.6032 266.293 86.6032ZM169.527 86.6032C170.126 86.6012 170.716 86.4558 171.248 86.1794C171.779 85.9029 172.237 85.5033 172.582 85.0139C172.928 84.5245 173.151 83.9595 173.234 83.3662C173.317 82.7728 173.256 82.1683 173.058 81.603C172.76 80.8037 172.601 79.9595 172.586 79.1066C172.586 74.976 175.952 71.6101 180.082 71.6101C184.213 71.6101 187.579 74.976 187.579 79.1066C187.579 79.8863 187.421 80.7034 187.107 81.603C186.908 82.1683 186.848 82.7728 186.93 83.3662C187.013 83.9595 187.237 84.5245 187.582 85.0139C187.928 85.5033 188.385 85.9029 188.917 86.1794C189.448 86.4558 190.038 86.6012 190.637 86.6032H210.068V101.596H150.096V90.3665V90.3515V86.6032H169.527ZM262.544 289.01H97.6201V94.0998H142.599V105.345C142.599 106.339 142.994 107.292 143.697 107.995C144.4 108.698 145.354 109.093 146.348 109.093H213.817C214.811 109.093 215.764 108.698 216.467 107.995C217.17 107.292 217.565 106.339 217.565 105.345V94.0998H262.544V289.01Z" fill="#0C0C0C"/>
<path d="M228.81 109.093H247.551V274.017H112.613V109.093H131.355C132.349 109.093 133.302 108.698 134.005 107.995C134.708 107.292 135.103 106.339 135.103 105.344C135.103 104.35 134.708 103.397 134.005 102.694C133.302 101.991 132.349 101.596 131.355 101.596H108.865C107.871 101.596 106.917 101.991 106.215 102.694C105.512 103.397 105.117 104.35 105.117 105.344V277.765C105.117 278.759 105.512 279.713 106.215 280.416C106.917 281.119 107.871 281.514 108.865 281.514H251.3C252.294 281.514 253.247 281.119 253.95 280.416C254.653 279.713 255.048 278.759 255.048 277.765V105.344C255.048 104.35 254.653 103.397 253.95 102.694C253.247 101.991 252.294 101.596 251.3 101.596H228.81C227.816 101.596 226.862 101.991 226.16 102.694C225.457 103.397 225.062 104.35 225.062 105.344C225.062 106.339 225.457 107.292 226.16 107.995C226.862 108.698 227.816 109.093 228.81 109.093Z" fill="#0C0C0C"/>
<path d="M191.327 146.576H236.307C237.301 146.576 238.254 146.181 238.957 145.478C239.66 144.775 240.055 143.821 240.055 142.827V127.834C240.055 126.84 239.66 125.887 238.957 125.184C238.254 124.481 237.301 124.086 236.307 124.086H191.327C190.333 124.086 189.38 124.481 188.677 125.184C187.974 125.887 187.579 126.84 187.579 127.834V142.827C187.579 143.821 187.974 144.775 188.677 145.478C189.38 146.181 190.333 146.576 191.327 146.576ZM195.076 131.582H232.558V139.079H195.076V131.582ZM240.055 202.8C240.055 201.806 239.66 200.852 238.957 200.149C238.254 199.446 237.301 199.052 236.307 199.052H123.858C122.864 199.052 121.911 199.446 121.208 200.149C120.505 200.852 120.11 201.806 120.11 202.8V217.793C120.11 218.787 120.505 219.74 121.208 220.443C121.911 221.146 122.864 221.541 123.858 221.541H236.307C237.301 221.541 238.254 221.146 238.957 220.443C239.66 219.74 240.055 218.787 240.055 217.793V202.8ZM232.558 214.045H127.607V206.548H232.558V214.045ZM236.307 154.072H213.817C212.823 154.072 211.87 154.467 211.167 155.17C210.464 155.873 210.069 156.826 210.069 157.82C210.069 158.815 210.464 159.768 211.167 160.471C211.87 161.174 212.823 161.569 213.817 161.569H236.307C237.301 161.569 238.254 161.174 238.957 160.471C239.66 159.768 240.055 158.815 240.055 157.82C240.055 156.826 239.66 155.873 238.957 155.17C238.254 154.467 237.301 154.072 236.307 154.072ZM191.327 161.569H198.824C199.818 161.569 200.771 161.174 201.474 160.471C202.177 159.768 202.572 158.815 202.572 157.82C202.572 156.826 202.177 155.873 201.474 155.17C200.771 154.467 199.818 154.072 198.824 154.072H191.327C190.333 154.072 189.38 154.467 188.677 155.17C187.974 155.873 187.579 156.826 187.579 157.82C187.579 158.815 187.974 159.768 188.677 160.471C189.38 161.174 190.333 161.569 191.327 161.569ZM213.817 229.038H138.851C137.857 229.038 136.904 229.433 136.201 230.136C135.498 230.839 135.103 231.792 135.103 232.786C135.103 233.78 135.498 234.734 136.201 235.437C136.904 236.139 137.857 236.534 138.851 236.534H213.817C214.811 236.534 215.765 236.139 216.468 235.437C217.17 234.734 217.565 233.78 217.565 232.786C217.565 231.792 217.17 230.839 216.468 230.136C215.765 229.433 214.811 229.038 213.817 229.038ZM126.482 230.155C125.779 229.473 124.838 229.092 123.858 229.092C122.879 229.092 121.938 229.473 121.235 230.155C120.875 230.491 120.589 230.899 120.395 231.352C120.202 231.805 120.104 232.293 120.11 232.786C120.11 233.303 120.185 233.761 120.41 234.203C120.56 234.66 120.86 235.103 121.235 235.402C121.534 235.777 121.984 236.077 122.434 236.227C122.884 236.452 123.334 236.527 123.858 236.527C124.383 236.527 124.833 236.452 125.283 236.227C125.748 236.063 126.162 235.779 126.482 235.402C126.857 235.103 127.157 234.653 127.307 234.203C127.532 233.761 127.607 233.303 127.607 232.786C127.607 231.812 127.232 230.837 126.482 230.155ZM213.817 244.031H138.851C137.857 244.031 136.904 244.426 136.201 245.129C135.498 245.832 135.103 246.785 135.103 247.779C135.103 248.773 135.498 249.727 136.201 250.43C136.904 251.133 137.857 251.527 138.851 251.527H213.817C214.811 251.527 215.765 251.133 216.468 250.43C217.17 249.727 217.565 248.773 217.565 247.779C217.565 246.785 217.17 245.832 216.468 245.129C215.765 244.426 214.811 244.031 213.817 244.031ZM126.482 245.148C125.779 244.466 124.838 244.085 123.858 244.085C122.879 244.085 121.938 244.466 121.235 245.148C120.875 245.484 120.589 245.892 120.395 246.345C120.202 246.798 120.104 247.287 120.11 247.779C120.11 248.829 120.485 249.728 121.235 250.403C121.909 251.16 122.884 251.527 123.858 251.527C124.383 251.527 124.833 251.452 125.283 251.228C125.748 251.064 126.162 250.779 126.482 250.403C126.857 250.103 127.157 249.653 127.307 249.204C127.532 248.754 127.607 248.296 127.607 247.779C127.607 246.805 127.232 245.83 126.482 245.148ZM213.817 259.024H138.851C137.857 259.024 136.904 259.419 136.201 260.122C135.498 260.825 135.103 261.778 135.103 262.772C135.103 263.766 135.498 264.72 136.201 265.423C136.904 266.126 137.857 266.521 138.851 266.521H213.817C214.811 266.521 215.765 266.126 216.468 265.423C217.17 264.72 217.565 263.766 217.565 262.772C217.565 261.778 217.17 260.825 216.468 260.122C215.765 259.419 214.811 259.024 213.817 259.024ZM236.307 229.038H228.81C227.816 229.038 226.863 229.433 226.16 230.136C225.457 230.839 225.062 231.792 225.062 232.786C225.062 233.78 225.457 234.734 226.16 235.437C226.863 236.139 227.816 236.534 228.81 236.534H236.307C237.301 236.534 238.254 236.139 238.957 235.437C239.66 234.734 240.055 233.78 240.055 232.786C240.055 231.792 239.66 230.839 238.957 230.136C238.254 229.433 237.301 229.038 236.307 229.038ZM236.307 244.031H228.81C227.816 244.031 226.863 244.426 226.16 245.129C225.457 245.832 225.062 246.785 225.062 247.779C225.062 248.773 225.457 249.727 226.16 250.43C226.863 251.133 227.816 251.527 228.81 251.527H236.307C237.301 251.527 238.254 251.133 238.957 250.43C239.66 249.727 240.055 248.773 240.055 247.779C240.055 246.785 239.66 245.832 238.957 245.129C238.254 244.426 237.301 244.031 236.307 244.031ZM236.307 259.024H228.81C227.816 259.024 226.863 259.419 226.16 260.122C225.457 260.825 225.062 261.778 225.062 262.772C225.062 263.766 225.457 264.72 226.16 265.423C226.863 266.126 227.816 266.521 228.81 266.521H236.307C237.301 266.521 238.254 266.126 238.957 265.423C239.66 264.72 240.055 263.766 240.055 262.772C240.055 261.778 239.66 260.825 238.957 260.122C238.254 259.419 237.301 259.024 236.307 259.024ZM122.434 259.324C121.984 259.474 121.534 259.774 121.235 260.141C120.485 260.823 120.11 261.798 120.11 262.772C120.11 263.747 120.485 264.721 121.235 265.396C121.909 266.153 122.884 266.521 123.858 266.521C124.833 266.521 125.807 266.146 126.482 265.396C127.232 264.721 127.607 263.747 127.607 262.772C127.607 261.798 127.232 260.823 126.482 260.141C125.974 259.605 125.312 259.239 124.587 259.092C123.863 258.946 123.111 259.027 122.434 259.324ZM191.327 176.562H236.307C237.301 176.562 238.254 176.167 238.957 175.464C239.66 174.761 240.055 173.808 240.055 172.814C240.055 171.819 239.66 170.866 238.957 170.163C238.254 169.46 237.301 169.065 236.307 169.065H191.327C190.333 169.065 189.38 169.46 188.677 170.163C187.974 170.866 187.579 171.819 187.579 172.814C187.579 173.808 187.974 174.761 188.677 175.464C189.38 176.167 190.333 176.562 191.327 176.562ZM191.327 191.555H221.314C222.308 191.555 223.261 191.16 223.964 190.457C224.667 189.754 225.062 188.801 225.062 187.807C225.062 186.813 224.667 185.859 223.964 185.156C223.261 184.453 222.308 184.058 221.314 184.058H191.327C190.333 184.058 189.38 184.453 188.677 185.156C187.974 185.859 187.579 186.813 187.579 187.807C187.579 188.801 187.974 189.754 188.677 190.457C189.38 191.16 190.333 191.555 191.327 191.555Z" fill="#0C0C0C"/>
</g>
<defs>
<clipPath id="clip0_4_67">
<rect width="359.835" height="359.835" fill="white" transform="translate(0.165039 0.392822)"/>
</clipPath>
</defs>
</svg>
