<svg width="1036" height="1036" viewBox="0 0 1036 1036" fill="none" xmlns="http://www.w3.org/2000/svg">
<g clip-path="url(#clip0_4_67)">
<circle cx="503.5" cy="515.5" r="501.5" fill="#FFFCFC"/>
<path d="M518 0C232.388 0 0 232.388 0 518C0 803.612 232.388 1036 518 1036C803.612 1036 1036 803.612 1036 518C1036 232.388 803.612 0 518 0ZM518 1014.42C244.28 1014.42 21.5833 791.72 21.5833 518C21.5833 244.28 244.28 21.5833 518 21.5833C791.72 21.5833 1014.42 244.28 1014.42 518C1014.42 791.72 791.72 1014.42 518 1014.42Z" fill="#0C0C0C"/>
<path d="M378.658 381.011L384.831 403.587C385.068 404.493 385.867 405.011 386.32 405.788V417.767C386.32 430.415 391.608 441.833 400.047 450.034V461.236L370.003 472.502C362.737 475.259 356.478 480.156 352.054 486.545C347.63 492.934 345.249 500.516 345.226 508.288V539.583C345.226 542.446 346.363 545.19 348.386 547.214C350.41 549.238 353.155 550.375 356.017 550.375C358.879 550.375 361.624 549.238 363.648 547.214C365.672 545.19 366.809 542.446 366.809 539.583V508.288C366.809 501.402 371.147 495.143 377.601 492.726L389.126 488.409C394.549 494.203 401.094 498.832 408.363 502.016C415.632 505.2 423.473 506.871 431.408 506.928C447.639 506.928 462.747 499.913 473.754 488.301L485.517 492.704C491.971 495.122 496.309 501.381 496.309 508.266V539.583C496.309 542.446 497.446 545.19 499.47 547.214C501.494 549.238 504.238 550.375 507.101 550.375C509.963 550.375 512.708 549.238 514.731 547.214C516.755 545.19 517.892 542.446 517.892 539.583V508.288C517.892 492.467 507.942 478.071 493.115 472.502L462.747 461.106V450.013C471.164 441.833 476.431 430.415 476.431 417.767V406.544C477.124 405.459 477.621 404.261 477.898 403.004L484.309 373.241C485.647 365.989 484.028 358.65 479.776 352.607C475.524 346.564 469.179 342.571 461.883 341.362L422.818 334.844C416.455 333.775 409.92 335.022 404.399 338.361C398.879 341.7 394.738 346.907 392.73 353.039C389.057 354.594 385.824 357.034 383.32 360.14C381.02 363.042 379.406 366.427 378.598 370.041C377.791 373.655 377.812 377.405 378.658 381.011ZM454.847 417.767C454.847 426.336 450.013 433.523 443.128 437.624C441.876 438.358 440.667 439.135 439.329 439.631C437.429 440.27 435.457 440.669 433.458 440.818C432.058 440.948 430.649 440.948 429.25 440.818C427.265 440.671 425.306 440.272 423.422 439.631C422.105 439.156 420.897 438.379 419.667 437.645C416.138 435.651 413.194 432.766 411.13 429.277C409.066 425.789 407.953 421.82 407.904 417.767V411.53H454.847V417.767ZM412.652 479.582L414.638 478.826C416.692 478.054 418.462 476.673 419.712 474.868C420.961 473.063 421.631 470.92 421.631 468.725V461.754L421.846 461.776C424.933 462.445 428.106 462.833 431.386 462.833H431.408L431.71 462.812C434.883 462.79 437.969 462.423 440.969 461.776L441.185 461.754V468.747C441.185 473.474 444.25 477.359 448.48 478.826L448.523 478.848L450.315 479.517C444.517 482.594 438.055 484.209 431.491 484.22C424.928 484.232 418.46 482.639 412.652 479.582ZM400.155 373.716C400.393 373.405 400.701 373.156 401.053 372.987C401.406 372.818 401.793 372.735 402.184 372.744C408.141 372.744 412.976 367.478 412.976 361.521C412.976 359.319 414.184 357.981 414.897 357.377C415.492 356.85 416.201 356.465 416.967 356.252C417.734 356.039 418.539 356.003 419.321 356.147L458.387 362.665C460.459 363.01 461.625 364.305 462.143 365.039C462.988 366.196 463.358 367.632 463.178 369.054L458.668 389.946H403.501L399.637 375.895C399.548 375.517 399.549 375.123 399.639 374.744C399.729 374.366 399.905 374.014 400.155 373.716Z" fill="#0C0C0C"/>
<path d="M766.208 248.208H625.917V237.417C625.917 234.554 624.78 231.81 622.756 229.786C620.732 227.762 617.987 226.625 615.125 226.625H561.167C561.167 202.819 541.806 183.458 518 183.458C494.194 183.458 474.833 202.819 474.833 226.625H420.875C418.013 226.625 415.268 227.762 413.244 229.786C411.22 231.81 410.083 234.554 410.083 237.417V248.208H269.792C266.93 248.208 264.185 249.345 262.161 251.369C260.137 253.393 259 256.138 259 259V841.75C259 844.612 260.137 847.357 262.161 849.381C264.185 851.405 266.93 852.542 269.792 852.542H766.208C769.07 852.542 771.815 851.405 773.839 849.381C775.863 847.357 777 844.612 777 841.75V259C777 256.138 775.863 253.393 773.839 251.369C771.815 249.345 769.07 248.208 766.208 248.208ZM487.611 248.208C489.336 248.202 491.034 247.784 492.564 246.988C494.094 246.192 495.412 245.041 496.407 243.632C497.402 242.223 498.045 240.597 498.284 238.889C498.522 237.18 498.348 235.44 497.776 233.812C496.919 231.511 496.459 229.08 496.417 226.625C496.417 214.733 506.108 205.042 518 205.042C529.892 205.042 539.583 214.733 539.583 226.625C539.583 228.87 539.13 231.222 538.224 233.812C537.652 235.44 537.478 237.18 537.716 238.889C537.955 240.597 538.598 242.223 539.593 243.632C540.588 245.041 541.906 246.192 543.436 246.988C544.966 247.784 546.664 248.202 548.389 248.208H604.333V291.375H431.667V259.043V259V248.208H487.611ZM755.417 830.958H280.583V269.792H410.083V302.167C410.083 305.029 411.22 307.774 413.244 309.797C415.268 311.821 418.013 312.958 420.875 312.958H615.125C617.987 312.958 620.732 311.821 622.756 309.797C624.78 307.774 625.917 305.029 625.917 302.167V269.792H755.417V830.958Z" fill="#0C0C0C"/>
<path d="M658.291 312.958H712.25V787.792H323.75V312.958H377.708C380.57 312.958 383.315 311.821 385.339 309.798C387.363 307.774 388.5 305.029 388.5 302.167C388.5 299.305 387.363 296.56 385.339 294.536C383.315 292.512 380.57 291.375 377.708 291.375H312.958C310.096 291.375 307.351 292.512 305.327 294.536C303.303 296.56 302.167 299.305 302.167 302.167V798.583C302.167 801.445 303.303 804.19 305.327 806.214C307.351 808.238 310.096 809.375 312.958 809.375H723.041C725.904 809.375 728.649 808.238 730.672 806.214C732.696 804.19 733.833 801.445 733.833 798.583V302.167C733.833 299.305 732.696 296.56 730.672 294.536C728.649 292.512 725.904 291.375 723.041 291.375H658.291C655.429 291.375 652.684 292.512 650.661 294.536C648.637 296.56 647.5 299.305 647.5 302.167C647.5 305.029 648.637 307.774 650.661 309.798C652.684 311.821 655.429 312.958 658.291 312.958Z" fill="#0C0C0C"/>
<path d="M550.375 420.875H679.875C682.737 420.875 685.482 419.738 687.506 417.714C689.53 415.69 690.667 412.945 690.667 410.083V366.917C690.667 364.055 689.53 361.31 687.506 359.286C685.482 357.262 682.737 356.125 679.875 356.125H550.375C547.513 356.125 544.768 357.262 542.744 359.286C540.72 361.31 539.583 364.055 539.583 366.917V410.083C539.583 412.945 540.72 415.69 542.744 417.714C544.768 419.738 547.513 420.875 550.375 420.875ZM561.167 377.708H669.083V399.292H561.167V377.708ZM690.667 582.75C690.667 579.888 689.53 577.143 687.506 575.119C685.482 573.095 682.737 571.958 679.875 571.958H356.125C353.263 571.958 350.518 573.095 348.494 575.119C346.47 577.143 345.333 579.888 345.333 582.75V625.917C345.333 628.779 346.47 631.524 348.494 633.548C350.518 635.571 353.263 636.708 356.125 636.708H679.875C682.737 636.708 685.482 635.571 687.506 633.548C689.53 631.524 690.667 628.779 690.667 625.917V582.75ZM669.083 615.125H366.917V593.542H669.083V615.125ZM679.875 442.458H615.125C612.263 442.458 609.518 443.595 607.494 445.619C605.47 447.643 604.333 450.388 604.333 453.25C604.333 456.112 605.47 458.857 607.494 460.881C609.518 462.905 612.263 464.042 615.125 464.042H679.875C682.737 464.042 685.482 462.905 687.506 460.881C689.53 458.857 690.667 456.112 690.667 453.25C690.667 450.388 689.53 447.643 687.506 445.619C685.482 443.595 682.737 442.458 679.875 442.458ZM550.375 464.042H571.958C574.82 464.042 577.565 462.905 579.589 460.881C581.613 458.857 582.75 456.112 582.75 453.25C582.75 450.388 581.613 447.643 579.589 445.619C577.565 443.595 574.82 442.458 571.958 442.458H550.375C547.513 442.458 544.768 443.595 542.744 445.619C540.72 447.643 539.583 450.388 539.583 453.25C539.583 456.112 540.72 458.857 542.744 460.881C544.768 462.905 547.513 464.042 550.375 464.042ZM615.125 658.292H399.292C396.429 658.292 393.684 659.429 391.661 661.452C389.637 663.476 388.5 666.221 388.5 669.083C388.5 671.945 389.637 674.69 391.661 676.714C393.684 678.738 396.429 679.875 399.292 679.875H615.125C617.987 679.875 620.732 678.738 622.756 676.714C624.78 674.69 625.917 671.945 625.917 669.083C625.917 666.221 624.78 663.476 622.756 661.452C620.732 659.429 617.987 658.292 615.125 658.292ZM363.679 661.508C361.654 659.546 358.945 658.448 356.125 658.448C353.305 658.448 350.596 659.546 348.571 661.508C347.534 662.476 346.711 663.65 346.154 664.954C345.596 666.259 345.317 667.665 345.333 669.083C345.333 670.573 345.549 671.889 346.197 673.163C346.628 674.479 347.492 675.753 348.571 676.616C349.434 677.695 350.729 678.558 352.024 678.99C353.319 679.638 354.614 679.853 356.125 679.853C357.636 679.853 358.931 679.638 360.226 678.99C361.567 678.518 362.758 677.699 363.679 676.616C364.758 675.753 365.622 674.458 366.053 673.163C366.701 671.889 366.917 670.573 366.917 669.083C366.917 666.277 365.837 663.472 363.679 661.508ZM615.125 701.458H399.292C396.429 701.458 393.684 702.595 391.661 704.619C389.637 706.643 388.5 709.388 388.5 712.25C388.5 715.112 389.637 717.857 391.661 719.881C393.684 721.905 396.429 723.042 399.292 723.042H615.125C617.987 723.042 620.732 721.905 622.756 719.881C624.78 717.857 625.917 715.112 625.917 712.25C625.917 709.388 624.78 706.643 622.756 704.619C620.732 702.595 617.987 701.458 615.125 701.458ZM363.679 704.674C361.654 702.712 358.945 701.615 356.125 701.615C353.305 701.615 350.596 702.712 348.571 704.674C347.534 705.643 346.711 706.817 346.154 708.121C345.596 709.425 345.317 710.832 345.333 712.25C345.333 715.272 346.412 717.862 348.571 719.804C350.513 721.984 353.319 723.042 356.125 723.042C357.636 723.042 358.931 722.826 360.226 722.178C361.567 721.707 362.758 720.887 363.679 719.804C364.758 718.941 365.622 717.646 366.053 716.351C366.701 715.056 366.917 713.739 366.917 712.25C366.917 709.444 365.837 706.638 363.679 704.674ZM615.125 744.625H399.292C396.429 744.625 393.684 745.762 391.661 747.786C389.637 749.81 388.5 752.555 388.5 755.417C388.5 758.279 389.637 761.024 391.661 763.048C393.684 765.071 396.429 766.208 399.292 766.208H615.125C617.987 766.208 620.732 765.071 622.756 763.048C624.78 761.024 625.917 758.279 625.917 755.417C625.917 752.555 624.78 749.81 622.756 747.786C620.732 745.762 617.987 744.625 615.125 744.625ZM679.875 658.292H658.292C655.429 658.292 652.684 659.429 650.661 661.452C648.637 663.476 647.5 666.221 647.5 669.083C647.5 671.945 648.637 674.69 650.661 676.714C652.684 678.738 655.429 679.875 658.292 679.875H679.875C682.737 679.875 685.482 678.738 687.506 676.714C689.53 674.69 690.667 671.945 690.667 669.083C690.667 666.221 689.53 663.476 687.506 661.452C685.482 659.429 682.737 658.292 679.875 658.292ZM679.875 701.458H658.292C655.429 701.458 652.684 702.595 650.661 704.619C648.637 706.643 647.5 709.388 647.5 712.25C647.5 715.112 648.637 717.857 650.661 719.881C652.684 721.905 655.429 723.042 658.292 723.042H679.875C682.737 723.042 685.482 721.905 687.506 719.881C689.53 717.857 690.667 715.112 690.667 712.25C690.667 709.388 689.53 706.643 687.506 704.619C685.482 702.595 682.737 701.458 679.875 701.458ZM679.875 744.625H658.292C655.429 744.625 652.684 745.762 650.661 747.786C648.637 749.81 647.5 752.555 647.5 755.417C647.5 758.279 648.637 761.024 650.661 763.048C652.684 765.071 655.429 766.208 658.292 766.208H679.875C682.737 766.208 685.482 765.071 687.506 763.048C689.53 761.024 690.667 758.279 690.667 755.417C690.667 752.555 689.53 749.81 687.506 747.786C685.482 745.762 682.737 744.625 679.875 744.625ZM352.024 745.488C350.729 745.92 349.434 746.783 348.571 747.841C346.412 749.805 345.333 752.611 345.333 755.417C345.333 758.223 346.412 761.028 348.571 762.971C350.513 765.151 353.319 766.208 356.125 766.208C358.931 766.208 361.737 765.129 363.679 762.971C365.837 761.028 366.917 758.223 366.917 755.417C366.917 752.611 365.837 749.805 363.679 747.841C362.215 746.297 360.309 745.242 358.224 744.821C356.138 744.4 353.973 744.633 352.024 745.488ZM550.375 507.208H679.875C682.737 507.208 685.482 506.071 687.506 504.048C689.53 502.024 690.667 499.279 690.667 496.417C690.667 493.555 689.53 490.81 687.506 488.786C685.482 486.762 682.737 485.625 679.875 485.625H550.375C547.513 485.625 544.768 486.762 542.744 488.786C540.72 490.81 539.583 493.555 539.583 496.417C539.583 499.279 540.72 502.024 542.744 504.048C544.768 506.071 547.513 507.208 550.375 507.208ZM550.375 550.375H636.708C639.57 550.375 642.315 549.238 644.339 547.214C646.363 545.19 647.5 542.445 647.5 539.583C647.5 536.721 646.363 533.976 644.339 531.952C642.315 529.929 639.57 528.792 636.708 528.792H550.375C547.513 528.792 544.768 529.929 542.744 531.952C540.72 533.976 539.583 536.721 539.583 539.583C539.583 542.445 540.72 545.19 542.744 547.214C544.768 549.238 547.513 550.375 550.375 550.375Z" fill="#0C0C0C"/>
</g>
<defs>
<clipPath id="clip0_4_67">
<rect width="1036" height="1036" fill="white"/>
</clipPath>
</defs>
</svg>
