<svg width="1036" height="1036" viewBox="0 0 1036 1036" fill="none" xmlns="http://www.w3.org/2000/svg">
<circle cx="507.942" cy="517.162" r="507.942" fill="#FFFCFC"/>
<path d="M856.888 301.715C856.98 300.908 856.98 300.093 856.888 299.286C856.965 298.155 856.965 297.019 856.888 295.887C856.266 294.57 855.506 293.322 854.622 292.164C854.355 291.643 854.029 291.154 853.651 290.707C852.401 289.415 850.918 288.372 849.28 287.631C848.001 287.064 846.63 286.735 845.233 286.66H191.096C189.699 286.735 188.328 287.064 187.049 287.631C185.412 288.372 183.929 289.415 182.679 290.707C182.3 291.154 181.974 291.643 181.708 292.164C180.823 293.322 180.064 294.57 179.441 295.887C179.364 297.019 179.364 298.155 179.441 299.286C179.349 300.093 179.349 300.908 179.441 301.715V734.892C179.634 736.095 179.904 737.285 180.251 738.453C180.118 739.366 180.118 740.293 180.251 741.205C180.517 741.726 180.843 742.215 181.222 742.662C181.993 744.005 182.916 745.254 183.974 746.385L185.593 747.518C186.669 748.261 187.806 748.91 188.992 749.461C190.065 749.628 191.157 749.628 192.229 749.461C193.091 749.538 193.958 749.538 194.819 749.461H840.701C841.562 749.538 842.429 749.538 843.291 749.461C844.363 749.628 845.455 749.628 846.528 749.461C847.714 748.91 848.851 748.261 849.927 747.518L851.546 746.385C852.604 745.254 853.528 744.005 854.298 742.662C854.677 742.215 855.003 741.726 855.269 741.205C855.402 740.293 855.402 739.366 855.269 738.453C855.345 737.267 855.345 736.078 855.269 734.892V301.715H856.888ZM209.388 338.784L384.537 501.954L209.388 692.804V338.784ZM595.622 506.81C574.223 526.641 546.125 537.658 516.951 537.658C487.776 537.658 459.678 526.641 438.279 506.81L234.479 317.902H799.423L595.622 506.81ZM408.333 522.998L416.264 530.444C443.667 555.791 479.622 569.871 516.951 569.871C554.279 569.871 590.234 555.791 617.637 530.444L625.569 523.16L803.631 717.409H229.946L408.333 522.998ZM649.364 501.954L824.513 338.784V692.804L649.364 501.954Z" fill="black"/>
</svg>
