<svg width="1036" height="1036" viewBox="0 0 1036 1036" fill="none" xmlns="http://www.w3.org/2000/svg">
<circle cx="520.402" cy="518.801" r="485.175" fill="#FFFCFC"/>
<path d="M517.999 0C231.914 0 0 231.915 0 518C0 804.085 231.914 1036 517.999 1036C804.084 1036 1036 804.085 1036 518C1036 231.915 804.08 0 517.999 0ZM379.796 768.429H266.064V400.993H379.796V768.429ZM322.388 352.875C285.244 352.875 255.133 322.518 255.133 285.076C255.133 247.631 285.248 217.276 322.388 217.276C359.527 217.276 389.639 247.631 389.639 285.076C389.641 322.52 359.529 352.875 322.388 352.875ZM806.006 768.429H692.826V575.556C692.826 522.656 672.732 493.127 630.903 493.127C585.379 493.127 561.596 523.882 561.596 575.556V768.429H452.514V400.993H561.596V450.481C561.596 450.481 594.408 389.785 672.32 389.785C750.234 389.785 806.008 437.359 806.008 535.774L806.006 768.429Z" fill="url(#paint0_linear_4_48)"/>
<defs>
<linearGradient id="paint0_linear_4_48" x1="151.718" y1="151.719" x2="884.281" y2="884.28" gradientUnits="userSpaceOnUse">
<stop stop-color="#2489BE"/>
<stop offset="1" stop-color="#0575B3"/>
</linearGradient>
</defs>
</svg>
