<svg width="72" height="72" viewBox="0 0 72 72" fill="none" xmlns="http://www.w3.org/2000/svg">
<g clip-path="url(#clip0_24_69)">
<path d="M20.3999 62.4H51.5999C52.3199 62.4 52.7999 61.92 52.7999 61.2C52.7999 60.48 52.3199 60 51.5999 60H20.3999C19.6799 60 19.1999 60.48 19.1999 61.2C19.1999 61.92 19.6799 62.4 20.3999 62.4ZM32.3999 67.2H39.5999C40.3199 67.2 40.7999 66.72 40.7999 66C40.7999 65.28 40.3199 64.8 39.5999 64.8H32.3999C31.6799 64.8 31.1999 65.28 31.1999 66C31.1999 66.72 31.6799 67.2 32.3999 67.2ZM20.3999 9.6H51.5999C52.3199 9.6 52.7999 10.08 52.7999 10.8C52.7999 11.52 52.3199 12 51.5999 12H20.3999C19.6799 12 19.1999 11.52 19.1999 10.8C19.1999 10.08 19.6799 9.6 20.3999 9.6ZM32.3999 4.8H39.5999C40.3199 4.8 40.7999 5.28 40.7999 6C40.7999 6.72 40.3199 7.2 39.5999 7.2H32.3999C31.6799 7.2 31.1999 6.72 31.1999 6C31.1999 5.28 31.6799 4.8 32.3999 4.8ZM17.9999 0C16.0799 0 14.3999 1.68 14.3999 3.6V68.4C14.3999 70.32 16.0799 72 17.9999 72H53.9999C55.9199 72 57.5999 70.32 57.5999 68.4V3.6C57.5999 1.68 55.9199 0 53.9999 0H17.9999ZM17.9999 2.4H53.9999C54.7199 2.4 55.1999 2.88 55.1999 3.6V68.4C55.1999 69.12 54.7199 69.6 53.9999 69.6H17.9999C17.2799 69.6 16.7999 69.12 16.7999 68.4V3.6C16.7999 2.88 17.2799 2.4 17.9999 2.4Z" fill="white"/>
<path d="M38.3971 35.7528C38.3971 34.3496 37.2239 33.2119 35.7764 33.2119C34.3292 33.2119 33.1558 34.3496 33.1558 35.7528C33.1558 37.1562 34.3292 38.2938 35.7764 38.2938C37.2239 38.2938 38.3971 37.1562 38.3971 35.7528Z" fill="white"/>
<path fill-rule="evenodd" clip-rule="evenodd" d="M44.2872 31.0354C44.8406 28.8549 45.5363 24.8115 43.084 23.4406C40.6431 22.0758 37.4668 24.6911 35.7896 26.261C34.1172 24.7068 30.8517 22.1026 28.4015 23.4778C25.9616 24.8472 26.714 28.8237 27.2797 31.0178C25.0037 31.6446 21.1021 32.9946 21.1021 35.7528C21.1021 38.5032 24.9996 39.9719 27.2621 40.5981C26.6944 42.8044 25.9796 46.724 28.4226 48.0904C30.882 49.4653 34.1374 46.9231 35.8302 45.3361C37.5182 46.9152 40.6639 49.4741 43.1053 48.1038C45.5543 46.7293 44.9164 42.74 44.3507 40.5331C46.544 39.9056 50.4499 38.4688 50.4499 35.7528C50.4499 33.0211 46.5273 31.6601 44.2872 31.0354ZM44.0092 39.3636C43.6378 38.2236 43.1364 37.0112 42.5231 35.7588C43.1085 34.536 43.5904 33.3393 43.9515 32.2066C45.5937 32.6682 49.1962 33.7233 49.1962 35.7528C49.1962 37.8013 45.7392 38.8664 44.0092 39.3636ZM42.4771 47.0518C40.6555 48.0741 37.9498 45.627 36.7032 44.4642C37.5302 43.5872 38.3566 42.5676 39.1632 41.4355C40.5821 41.3135 41.9224 41.1139 43.138 40.8415C43.5361 42.4025 44.3066 46.0249 42.4771 47.0518ZM29.0491 47.0372C27.2274 46.0187 28.06 42.5211 28.4777 40.8959C29.6798 41.1538 31.0105 41.3392 32.4327 41.451C33.2445 42.5588 34.0949 43.5771 34.9519 44.4689C33.8931 45.4619 30.8793 48.0604 29.0491 47.0372ZM22.3557 35.7528C22.3557 33.6966 25.9367 32.6491 27.6163 32.1887C27.9836 33.3468 28.4654 34.5578 29.0467 35.7824C28.4578 37.0252 27.9692 38.2554 27.5985 39.4272C25.997 38.9827 22.3557 37.8103 22.3557 35.7528ZM29.0296 24.5298C30.8587 23.5032 33.6969 26.0034 34.9111 27.1287C34.0585 28.0163 33.216 29.0269 32.411 30.1284C31.0308 30.2524 29.7095 30.4516 28.4949 30.7184C28.0391 28.9488 27.2024 25.5553 29.0296 24.5298ZM40.0601 31.4496C40.9965 31.5642 41.8936 31.7166 42.736 31.903C42.4831 32.689 42.1679 33.5108 41.7967 34.3533C41.2585 33.3633 40.6809 32.3931 40.0601 31.4496ZM35.79 27.9973C36.3682 28.6047 36.9473 29.2829 37.5171 30.0188C36.3615 29.9658 35.204 29.9656 34.0484 30.018C34.6186 29.289 35.2027 28.6117 35.79 27.9973ZM29.766 34.3524C29.4009 33.5129 29.0886 32.6874 28.8335 31.8902C29.6708 31.7085 30.5638 31.56 31.4941 31.4473C30.8716 32.3888 30.2949 33.3586 29.766 34.3524ZM31.5208 40.145C30.5598 40.041 29.6533 39.9 28.8162 39.7233C29.0753 38.9122 29.3946 38.0689 29.7674 37.2113C30.3036 38.2154 30.8891 39.1946 31.5208 40.145ZM35.8247 43.5941C35.2305 42.9724 34.6378 42.2848 34.0589 41.5453C35.2211 41.5895 36.3855 41.5896 37.5476 41.5393C36.9761 42.2924 36.399 42.9809 35.8247 43.5941ZM41.8086 37.1676C42.2009 38.0346 42.5315 38.8732 42.7942 39.6707C41.9432 39.859 41.0245 40.0107 40.0565 40.1233C40.6819 39.1618 41.2688 38.1766 41.8086 37.1676ZM38.4635 40.2706C36.6858 40.3937 34.8971 40.3924 33.1188 40.2807C32.1084 38.8496 31.2089 37.3445 30.4324 35.782C31.2051 34.2228 32.0981 32.7207 33.1037 31.2918C34.8833 31.1614 36.6738 31.161 38.4534 31.2926C39.4504 32.7213 40.342 34.2195 41.1326 35.7647C40.3514 37.3232 39.4537 38.8283 38.4635 40.2706ZM42.4578 24.4937C44.2874 25.5169 43.473 29.1508 43.0733 30.7311C41.8558 30.4586 40.5335 30.2559 39.1493 30.1299C38.3428 29.0166 37.5073 28.0042 36.6685 27.128C37.8983 25.9785 40.6458 23.4805 42.4578 24.4937Z" fill="white"/>
</g>
<defs>
<clipPath id="clip0_24_69">
<rect width="72" height="72" fill="white"/>
</clipPath>
</defs>
</svg>
