<svg width="70" height="70" viewBox="0 0 70 70" fill="none" xmlns="http://www.w3.org/2000/svg">
<path d="M40.8603 34.9473C40.8603 31.8095 38.2369 29.2654 35.0002 29.2654C31.764 29.2654 29.1401 31.8095 29.1401 34.9473C29.1401 38.0854 31.764 40.6293 35.0002 40.6293C38.2369 40.6293 40.8603 38.0854 40.8603 34.9473Z" fill="white"/>
<path fill-rule="evenodd" clip-rule="evenodd" d="M54.0321 24.3987C55.2696 19.523 56.8251 10.4814 51.3415 7.41597C45.8835 4.36395 38.7809 10.2122 35.0304 13.7226C31.2909 10.2472 23.9888 4.42393 18.5098 7.49905C13.0539 10.5613 14.7364 19.453 16.0013 24.3593C10.9119 25.7609 2.1875 28.7796 2.1875 34.9473C2.1875 41.0974 10.9028 44.3817 15.9621 45.782C14.6925 50.7154 13.0943 59.4801 18.5572 62.5356C24.0566 65.6101 31.3359 59.9255 35.1212 56.3767C38.8957 59.9077 45.9301 65.6296 51.3892 62.5656C56.8654 59.4919 55.4391 50.5715 54.1741 45.6367C59.0785 44.2334 67.8125 41.0207 67.8125 34.9473C67.8125 28.8389 59.0413 25.7957 54.0321 24.3987ZM53.4104 43.0216C52.5798 40.4722 51.4588 37.7613 50.0874 34.9608C51.3964 32.2265 52.474 29.5505 53.2814 27.0176C56.9535 28.0499 65.0092 30.4091 65.0092 34.9473C65.0092 39.5281 57.2788 41.9097 53.4104 43.0216ZM49.9844 60.2131C45.9113 62.4991 39.8608 57.0272 37.0733 54.427C38.9226 52.4659 40.7706 50.1861 42.5742 47.6545C45.747 47.3817 48.7441 46.9354 51.4623 46.3262C52.3526 49.8168 54.0754 57.9169 49.9844 60.2131ZM19.9579 60.1805C15.8844 57.9031 17.7463 50.0819 18.6803 46.4478C21.3682 47.0245 24.3438 47.4392 27.524 47.6892C29.3394 50.1664 31.241 52.4433 33.1573 54.4375C30.7897 56.658 24.0505 62.4684 19.9579 60.1805ZM4.99076 34.9473C4.99076 30.3494 12.9983 28.0072 16.7541 26.9776C17.5755 29.5673 18.6527 32.2752 19.9527 35.0136C18.6359 37.7926 17.5432 40.5433 16.7144 43.1637C13.1331 42.1697 4.99076 39.548 4.99076 34.9473ZM19.9143 9.85149C24.0045 7.55597 30.3509 13.1465 33.066 15.6628C31.1596 17.6477 29.2755 19.9076 27.4757 22.3705C24.3893 22.6478 21.4348 23.0932 18.7186 23.69C17.6996 19.7328 15.8286 12.1445 19.9143 9.85149ZM44.5797 25.3249C46.6736 25.5811 48.6798 25.9219 50.5634 26.3388C49.9979 28.0962 49.2931 29.934 48.463 31.8178C47.2596 29.6041 45.9679 27.4347 44.5797 25.3249ZM35.0313 17.6052C36.3243 18.9634 37.6193 20.48 38.8933 22.1255C36.3092 22.0069 33.721 22.0065 31.1369 22.1237C32.412 20.4935 33.7181 18.9791 35.0313 17.6052ZM21.5611 31.8159C20.7447 29.9386 20.0462 28.0927 19.4758 26.3102C21.3482 25.9039 23.345 25.5719 25.4253 25.3199C24.0332 27.4251 22.7437 29.5936 21.5611 31.8159ZM25.485 44.7687C23.336 44.5362 21.309 44.221 19.4372 43.8259C20.0166 42.012 20.7305 40.1264 21.5643 38.2086C22.7631 40.4541 24.0723 42.6436 25.485 44.7687ZM35.1089 52.4814C33.7803 51.0912 32.4548 49.5537 31.1605 47.8999C33.7592 47.9988 36.363 47.999 38.9616 47.8866C37.6836 49.5705 36.3932 51.1103 35.1089 52.4814ZM48.4897 38.1111C49.3668 40.0496 50.1062 41.925 50.6936 43.7082C48.7907 44.1293 46.7364 44.4684 44.5718 44.7202C45.9703 42.5703 47.2826 40.3672 48.4897 38.1111ZM41.0097 45.0496C37.0346 45.325 33.0348 45.3219 29.0583 45.0721C26.7988 41.872 24.7874 38.5066 23.0512 35.0127C24.7791 31.526 26.7759 28.1671 29.0246 24.9721C33.0039 24.6805 37.0077 24.6796 40.987 24.9738C43.2165 28.1687 45.2102 31.5188 46.9781 34.974C45.2312 38.4589 43.2239 41.8246 41.0097 45.0496ZM49.9413 9.77068C54.0326 12.0587 52.2115 20.1846 51.3177 23.7182C48.5951 23.109 45.6385 22.6557 42.5432 22.374C40.7398 19.8845 38.8714 17.6207 36.9959 15.6614C39.7458 13.0909 45.8896 7.50507 49.9413 9.77068Z" fill="white"/>
</svg>
