<svg width="1036" height="1036" viewBox="0 0 1036 1036" fill="none" xmlns="http://www.w3.org/2000/svg">
<path fill-rule="evenodd" clip-rule="evenodd" d="M518.229 1033.07C412.97 1033.07 315.377 1001.37 233.205 947.837L34.6661 1010.8L98.8611 819.361C36.8094 735.425 0 630.068 0 517.435C0 500.731 1.27975 484.887 3.42175 468.185C28.6719 207.368 250.342 3.51782 518.229 3.51782C790.381 3.51782 1014.19 212.937 1035.14 477.607C1036 491.307 1036 505.011 1036 517.434C1036 801.374 803.665 1033.07 518.228 1033.07L518.229 1033.07Z" fill="#33CC33"/>
<path fill-rule="evenodd" clip-rule="evenodd" d="M698.364 587.243C683.347 583.391 673.952 579.968 663.244 595.806C647.817 620.2 615.283 673.698 583.609 657.864C567.773 650.589 519.401 634.75 461.592 583.391C416.626 543.159 385.814 494.798 377.65 480.247C364.398 455.422 406.329 429.315 421.755 398.072C426.883 387.799 424.751 379.24 420.483 371.963C417.487 364.688 387.086 290.219 374.245 260.687C361.812 230.297 348.972 235.436 340.848 235.436C256.904 235.436 217.519 294.928 217.519 378.381C217.519 395.072 220.965 413.053 226.093 428.887C241.068 482.387 274.465 525.612 279.634 532.888C286.896 543.156 383.68 698.949 537.37 758.874C691.921 818.784 691.921 798.672 719.328 796.527C746.324 794.398 808.4 761.002 821.241 725.052C833.673 690.39 833.673 659.995 829.365 653.581C824.236 644.595 698.364 587.672 698.364 587.241V587.243Z" fill="white"/>
</svg>
